<?xml version="1.0" encoding="utf-8"?>
<!-- Generator: Adobe Illustrator 19.1.0, SVG Export Plug-In . SVG Version: 6.00 Build 0)  -->
<svg version="1.1" id="Layer_2" xmlns="http://www.w3.org/2000/svg" xmlns:xlink="http://www.w3.org/1999/xlink" x="0px" y="0px"
	 viewBox="0 0 132.7 70.7" style="enable-background:new 0 0 132.7 70.7;" xml:space="preserve">
<style type="text/css">
	.st0{fill:#0099CC;}
</style>
<g>
	<g>
		<path class="st0" d="M64.2,66.5c-1.7,0-3-1.2-3-3c0-1.7,1.2-2.9,3-2.9c1.7,0,2.9,1.2,2.9,2.9C67.2,65.3,66,66.5,64.2,66.5
			 M64.2,60c-1.9,0-3.5,1.6-3.5,3.5c0,1.9,1.6,3.5,3.5,3.5c1.9,0,3.5-1.6,3.5-3.5C67.8,61.6,66.2,60,64.2,60"/>
		<path class="st0" d="M64.1,63.3h-0.7V62h1.1c0.5,0,1,0.1,1,0.6C65.5,63.4,64.7,63.3,64.1,63.3 M66.1,62.6c0-0.7-0.4-1.1-1.4-1.1
			h-1.7v4h0.5v-1.8h0.9l1.1,1.8H66l-1.2-1.8C65.5,63.7,66.1,63.4,66.1,62.6"/>
		<path class="st0" d="M50.2,21.1V3.5h-28v17.6H4.6v28.1h17.6v17.6h28V49.2h17.6V21.1H50.2z"/>
	</g>
	<g>
		<path class="st0" d="M124.5,66.5c-1.7,0-2.9-1.2-2.9-2.9c0-1.7,1.2-2.9,2.9-2.9c1.7,0,2.9,1.2,2.9,2.9
			C127.4,65.3,126.2,66.5,124.5,66.5 M124.5,60.2c-1.9,0-3.5,1.5-3.5,3.4c0,1.9,1.6,3.5,3.5,3.5c1.9,0,3.4-1.5,3.4-3.5
			C128,61.7,126.4,60.2,124.5,60.2"/>
		<path class="st0" d="M124.5,63.4h-0.7v-1.3h1.1c0.5,0,0.9,0.1,0.9,0.6C125.8,63.4,125,63.4,124.5,63.4 M126.3,62.7
			c0-0.7-0.3-1.1-1.4-1.1h-1.7v3.9h0.5v-1.7h0.8l1.1,1.7h0.6l-1.2-1.7C125.8,63.8,126.3,63.5,126.3,62.7"/>
		<path class="st0" d="M124.2,3.6c-6.8,3.4-13.6,5.3-21.5,5.3c-8,0-14.7-1.9-21.5-5.3c-4.5,8.8-5.2,23.1-1.3,35
			c3.7,11.5,10.9,22,22.8,28.5c11.9-6.6,19.1-17,22.8-28.5C129.4,26.6,128.7,12.4,124.2,3.6"/>
		<polygon class="st0" points="102.7,59.3 102.7,59.3 102.7,59.3 		"/>
	</g>
</g>
</svg>
